<?xml version="1.0" standalone="no"?>
<!DOCTYPE svg PUBLIC "-//W3C//DTD SVG 20010904//EN"
 "http://www.w3.org/TR/2001/REC-SVG-20010904/DTD/svg10.dtd">
<svg version="1.0" xmlns="http://www.w3.org/2000/svg"
 width="200.000000pt" height="200.000000pt" viewBox="0 0 200.000000 200.000000"
 preserveAspectRatio="xMidYMid meet">

<g transform="translate(0.000000,200.000000) scale(0.100000,-0.100000)"
fill="#000000" stroke="none">
<path d="M1140 1569 c-133 -35 -210 -71 -284 -132 l-30 -24 33 -42 c18 -22 35
-41 38 -41 4 0 20 11 37 24 51 38 152 85 218 101 124 29 249 10 368 -57 144
-80 234 -208 266 -375 17 -87 17 -95 0 -179 -38 -195 -151 -332 -333 -406 -71
-29 -87 -32 -188 -32 -99 0 -118 3 -188 31 -43 17 -93 42 -111 56 l-33 26 -33
-47 -32 -46 23 -19 c43 -36 183 -96 249 -106 155 -25 278 -8 410 56 158 79
279 219 333 388 18 57 22 93 22 195 -1 110 -4 134 -27 198 -15 41 -42 99 -60
130 -36 61 -148 181 -189 203 -15 8 -46 25 -70 38 -111 61 -309 89 -419 60z"/>
<path d="M661 1316 c-7 -9 -11 -40 -9 -83 l3 -68 80 0 80 0 0 80 0 80 -71 3
c-52 2 -74 -1 -83 -12z"/>
<path d="M1135 1221 c-188 -87 -239 -313 -108 -478 50 -63 146 -107 233 -107
56 0 79 5 133 32 73 36 114 80 148 158 26 63 24 188 -6 248 -25 52 -90 116
-147 144 -60 29 -192 31 -253 3z m237 -51 c131 -65 182 -219 116 -346 -50 -96
-120 -138 -229 -138 -67 -1 -82 3 -125 29 -128 80 -171 235 -97 353 75 121
213 163 335 102z"/>
<path d="M1195 1108 c-36 -13 -82 -53 -101 -90 -18 -35 -18 -121 0 -157 40
-76 134 -117 216 -92 48 14 105 77 120 131 16 60 7 77 -26 51 -37 -29 -77 -27
-115 7 -39 34 -43 91 -10 126 12 12 21 25 21 29 0 10 -71 7 -105 -5z"/>
<path d="M372 1173 l3 -58 52 -3 c48 -3 53 -1 58 21 4 13 5 39 3 58 -3 34 -3
34 -61 37 l-58 3 3 -58z"/>
<path d="M910 1195 c0 -33 2 -35 35 -35 33 0 35 2 35 35 0 33 -2 35 -35 35
-33 0 -35 -2 -35 -35z"/>
<path d="M807 1094 c-4 -4 -7 -24 -7 -45 0 -32 4 -40 24 -45 49 -12 61 -2 61
46 0 44 -1 45 -35 48 -20 2 -39 0 -43 -4z"/>
<path d="M684 1076 c-10 -26 4 -46 31 -46 23 0 26 4 23 28 -3 31 -44 45 -54
18z"/>
<path d="M265 1070 c-7 -12 2 -30 16 -30 5 0 9 9 9 20 0 21 -15 27 -25 10z"/>
<path d="M530 977 c0 -60 7 -67 63 -67 50 0 59 11 55 66 l-3 49 -57 3 -58 3 0
-54z"/>
<path d="M170 955 c0 -32 2 -35 30 -35 28 0 30 3 30 35 0 32 -2 35 -30 35 -28
0 -30 -3 -30 -35z"/>
<path d="M314 907 c-3 -8 -4 -32 -2 -53 l3 -39 50 0 50 0 0 50 0 50 -48 3
c-34 2 -49 -1 -53 -11z"/>
<path d="M620 840 c0 -5 7 -10 15 -10 8 0 15 5 15 10 0 6 -7 10 -15 10 -8 0
-15 -4 -15 -10z"/>
<path d="M130 800 c0 -27 3 -30 30 -30 27 0 30 3 30 30 0 27 -3 30 -30 30 -27
0 -30 -3 -30 -30z"/>
<path d="M377 764 c-4 -4 -7 -20 -7 -36 0 -25 4 -28 31 -28 28 0 30 2 27 33
-2 23 -8 33 -23 35 -12 2 -24 0 -28 -4z"/>
<path d="M810 750 c0 -5 7 -10 15 -10 8 0 15 5 15 10 0 6 -7 10 -15 10 -8 0
-15 -4 -15 -10z"/>
<path d="M594 706 c-3 -8 -4 -27 -2 -43 3 -25 7 -28 46 -31 l42 -3 0 45 0 46
-40 0 c-26 0 -43 -5 -46 -14z"/>
<path d="M757 684 c-4 -4 -7 -40 -7 -81 l0 -73 80 0 81 0 -3 78 -3 77 -70 3
c-39 1 -74 0 -78 -4z"/>
</g>
</svg>
